<svg xmlns="http://www.w3.org/2000/svg" version="1.1" xmlns:xlink="http://www.w3.org/1999/xlink" width="512" height="512" x="0" y="0" viewBox="0 0 150 150" style="enable-background:new 0 0 512 512" xml:space="preserve"><g><path d="m134.5 76.36-11.09-2.69c4.18-14.47 3-35.16-5.67-43.6-4.12-4-9.54-4.94-15.66-2.68-25.72 9.51-68.36 89.19-73 100.25L29 128s2.67 1.43 2.67 1.45c.5-1.91 11.81-24.33 26.51-47.7C76.85 52 92.4 34.17 103.12 30.2c5-1.85 9.25-1.18 12.53 2 7.46 7.26 8.73 25.9 5.2 39.42l-6.32-8.52c1 7.24-.17 17.14-1.91 24.57 6.16-4.48 14.84-9.37 21.88-11.31z" fill="#000000" opacity="1" data-original="#000000"></path></g></svg>