<svg xmlns="http://www.w3.org/2000/svg" version="1.1" xmlns:xlink="http://www.w3.org/1999/xlink" width="512" height="512" x="0" y="0" viewBox="0 0 150 150" style="enable-background:new 0 0 512 512" xml:space="preserve" class=""><g><path d="M88.39 61.22c9.66-6.36 20.52-13.5 27.54-21.81l8.28 7.82c-2.21-7-2.83-16.91-2.42-24.53-5.28 5.51-13 11.85-19.57 15l10.64.66c-6.75 7.61-17 14.35-26.12 20.36-12 7.91-21.53 14.15-20.65 20.53.54 3.87 4.74 6.93 13.23 9.6 10.89 3.44 16.2 8.13 15 13.23C91.48 113.49 58 126 19.28 119.13l-.52 3C68 130 94.38 114.24 97.18 102.79c1-4 .07-11.44-17-16.81-7-2.19-10.81-4.67-11.16-7.15-.58-4.5 9.11-10.83 19.37-17.61z" fill="#000000" opacity="1" data-original="#000000"></path></g></svg>