<svg xmlns="http://www.w3.org/2000/svg" version="1.1" xmlns:xlink="http://www.w3.org/1999/xlink" width="512" height="512" x="0" y="0" viewBox="0 0 150 150" style="enable-background:new 0 0 512 512" xml:space="preserve" class=""><g><path d="M82.45 71c10-.17 20.35-.35 23.54-8.9 6.44-17.25-12.75-37.59-13.57-38.45l-2.17 2.08c.19.2 18.71 19.84 12.93 35.32-2.47 6.66-11.37 6.81-20.78 6.95-11.4.2-24.32.42-24.59 14.31a17.33 17.33 0 0 0 1.82 8.1c-6.82 4.73-14.23 12-21.7 23l-7.13-8.63c1.33 7.18.71 17.13-.64 24.64 5.92-4.81 14.34-10.15 21.27-12.45l-10.9-2.06C47.7 104.41 54.73 97.5 61.18 93a25.57 25.57 0 0 0 8.57 7.32c10.21 5.61 25 6.7 31.62 2.31a7.15 7.15 0 0 0 3.52-6.94c-.58-5.78-6.24-11-14.09-12.87-4.2-1-15.13-2.38-28.65 6a14.41 14.41 0 0 1-1.34-6.41C61 72.13 69.12 71.25 82.45 71zm7.64 14.71c6.51 1.59 11.37 5.81 11.82 10.25a4.22 4.22 0 0 1-2.2 4.14c-5.16 3.41-18.45 3.09-28.51-2.44a23.09 23.09 0 0 1-7.53-6.33c12.56-7.76 22.56-6.55 26.42-5.6z" fill="#000000" opacity="1" data-original="#000000"></path></g></svg>