<svg xmlns="http://www.w3.org/2000/svg" version="1.1" xmlns:xlink="http://www.w3.org/1999/xlink" width="512" height="512" x="0" y="0" viewBox="0 0 150 150" style="enable-background:new 0 0 512 512" xml:space="preserve" class=""><g><path d="m95.69 33.2 8.58 10.8C84.45 56 79.42 79.49 75.71 96.85c-2.83 13.24-5.06 23.7-12.12 23.7-4.7 0-6.24-3-8.37-7-3.46-6.65-7.76-14.92-27.45-12.67l.35 3c17.62-2 21.25 4.94 24.44 11.08 2.22 4.26 4.51 8.66 11 8.66 9.48 0 11.94-11.51 15-26.07C82.38 80 87 58.41 105.07 47.05l-.31 13.2c4.4-7.5 12.7-16 19.77-21.69-9.08-.28-20.82-2.03-28.84-5.36z" fill="#000000" opacity="1" data-original="#000000"></path></g></svg>