<svg width="3092" height="538" viewBox="0 0 3092 538" fill="none" xmlns="http://www.w3.org/2000/svg">
<path d="M14.1351 457.661C62.6065 457.661 1478.88 -173.131 3073.14 197.166" stroke="white" stroke-width="143"/>
<path d="M342.562 347.56C340.426 340.604 340.113 333.873 341.623 327.365C343.2 320.837 346.279 315.191 350.861 310.426C355.49 305.573 361.111 302.131 367.726 300.1C375.295 297.776 382.588 297.589 389.604 299.539C396.667 301.4 402.575 305.332 407.328 311.335L393.315 315.637C390.322 312.452 386.907 310.441 383.068 309.605C379.23 308.768 375.162 309.01 370.866 310.329C366.161 311.773 362.292 314.118 359.258 317.362C356.225 320.607 354.258 324.531 353.359 329.135C352.527 333.718 352.917 338.635 354.529 343.886C356.141 349.137 358.577 353.426 361.837 356.753C365.165 360.059 369.006 362.238 373.358 363.29C377.689 364.273 382.208 364.042 386.913 362.598C391.209 361.279 394.711 359.197 397.419 356.351C400.127 353.504 401.826 349.924 402.516 345.608L416.529 341.306C415.963 348.941 413.279 355.511 408.477 361.015C403.743 366.497 397.591 370.401 390.022 372.725C383.339 374.776 376.765 375.115 370.299 373.743C363.812 372.301 358.085 369.322 353.116 364.803C348.215 360.263 344.697 354.516 342.562 347.56ZM468.83 349.243C462.188 351.182 455.61 351.431 449.095 349.989C442.629 348.459 436.943 345.4 432.037 340.814C427.179 336.139 423.73 330.309 421.691 323.324C419.652 316.34 419.431 309.605 421.03 303.119C422.697 296.613 425.854 291.009 430.501 286.308C435.196 281.519 440.865 278.155 447.507 276.215C454.217 274.256 460.805 274.041 467.271 275.572C473.786 277.013 479.462 280.038 484.3 284.644C489.138 289.251 492.576 295.047 494.616 302.031C496.655 309.015 496.886 315.785 495.307 322.339C493.708 328.825 490.561 334.463 485.866 339.252C481.219 343.953 475.541 347.283 468.83 349.243ZM465.861 339.074C470.586 337.695 474.487 335.404 477.565 332.201C480.623 328.931 482.599 325.01 483.493 320.438C484.436 315.778 484.138 310.812 482.599 305.54C481.059 300.267 478.648 295.955 475.366 292.604C472.152 289.232 468.386 287.025 464.069 285.981C459.751 284.938 455.23 285.107 450.506 286.486C445.781 287.866 441.88 290.157 438.802 293.359C435.724 296.562 433.704 300.458 432.741 305.05C431.846 309.621 432.169 314.543 433.708 319.815C435.248 325.088 437.634 329.444 440.868 332.884C444.151 336.236 447.961 338.468 452.298 339.579C456.615 340.622 461.136 340.454 465.861 339.074ZM571.832 242.268L591.604 313.956L579.845 317.199L566.304 268.1L557.978 323.23L549.829 325.478L514.317 282.439L527.859 331.538L516.1 334.781L496.327 263.093L509.015 259.593L549.688 308.868L559.248 245.739L571.832 242.268ZM635.454 262.908C639.499 262.589 643.309 263.768 646.884 266.446C650.46 269.125 652.806 272.604 653.925 276.883C654.88 280.54 654.78 284.106 653.623 287.578C652.517 290.964 650.395 293.988 647.257 296.651C644.101 299.246 640.142 301.165 635.379 302.409L606.6 309.929L587.8 237.98L615.233 230.812C620.134 229.531 624.56 229.259 628.513 229.996C632.465 230.733 635.708 232.281 638.242 234.642C640.758 236.934 642.467 239.805 643.368 243.256C644.45 247.397 644.248 251.136 642.761 254.474C641.274 257.812 638.838 260.623 635.454 262.908ZM607.5 265.125L622.097 261.311C625.962 260.301 628.739 258.654 630.427 256.37C632.167 253.998 632.604 251.156 631.738 247.843C630.891 244.599 629.128 242.369 626.451 241.152C623.824 239.847 620.579 239.7 616.714 240.71L602.117 244.524L607.5 265.125ZM631.828 293.052C635.831 292.006 638.719 290.219 640.492 287.692C642.264 285.164 642.7 282.175 641.798 278.724C640.878 275.204 638.94 272.725 635.984 271.285C633.027 269.846 629.547 269.649 625.544 270.695L610.016 274.753L615.886 297.218L631.828 293.052ZM665.123 217.937L683.371 290.029L671.545 293.022L653.298 220.93L665.123 217.937ZM757.945 271.808L746.093 274.692L697.303 229.411L710.432 283.369L698.58 286.253L680.973 213.893L692.825 211.009L741.59 256.186L728.485 202.332L740.337 199.448L757.945 271.808ZM770.452 202.594L775.377 223.859L800.395 218.065L802.64 227.76L777.622 233.554L782.764 255.757L810.909 249.239L813.155 258.933L773.126 268.203L756.323 195.652L796.352 186.381L798.597 196.076L770.452 202.594ZM895.006 225.432L864.566 231.982L862.532 247.962L850.084 250.64L860.464 172.23L874.272 169.259L915.985 236.46L903.433 239.161L895.006 225.432ZM889.565 216.424L870.474 185.18L865.82 221.534L889.565 216.424ZM951.068 230.059C946.174 231.053 941.6 231.109 937.344 230.226C933.075 229.273 929.502 227.451 926.626 224.76C923.75 222.068 921.886 218.626 921.034 214.431L933.827 211.833C934.746 214.922 936.494 217.26 939.073 218.847C941.722 220.42 945.039 220.802 949.023 219.993C953.148 219.155 956.165 217.524 958.074 215.098C959.969 212.602 960.597 209.781 959.958 206.635C959.462 204.189 958.323 202.345 956.543 201.105C954.832 199.852 952.808 199.025 950.471 198.626C948.203 198.213 945.082 197.901 941.109 197.689C936.1 197.396 931.964 196.926 928.703 196.278C925.497 195.546 922.569 194.03 919.918 191.729C917.267 189.429 915.48 186.007 914.557 181.463C913.705 177.268 914.009 173.385 915.467 169.814C916.925 166.242 919.371 163.234 922.806 160.789C926.24 158.345 930.439 156.619 935.402 155.611C942.462 154.177 948.592 154.788 953.79 157.445C959.044 160.017 962.54 164.33 964.279 170.382L951.066 173.065C950.317 170.452 948.597 168.435 945.907 167.016C943.217 165.597 939.984 165.271 936.209 166.038C932.784 166.733 930.165 168.175 928.353 170.363C926.541 172.551 925.968 175.287 926.636 178.573C927.09 180.81 928.13 182.528 929.757 183.726C931.439 184.84 933.414 185.604 935.681 186.017C937.949 186.43 940.999 186.756 944.833 186.997C949.927 187.345 954.111 187.878 957.387 188.596C960.732 189.3 963.738 190.837 966.403 193.207C969.124 195.493 970.952 198.943 971.89 203.557C972.642 207.262 972.338 210.963 970.978 214.661C969.688 218.344 967.326 221.589 963.893 224.397C960.516 227.121 956.241 229.009 951.068 230.059ZM1050.5 134.357L1052.33 144.139L1032.87 147.769L1044.68 211.091L1032.69 213.328L1020.88 150.006L1001.31 153.656L999.488 143.874L1050.5 134.357ZM1074.98 130.021L1083.15 176.712C1084.12 182.263 1086.3 186.191 1089.67 188.497C1093.11 190.791 1097.43 191.483 1102.63 190.573C1107.9 189.65 1111.73 187.531 1114.12 184.216C1116.58 180.889 1117.32 176.45 1116.35 170.899L1108.18 124.208L1120.19 122.105L1128.33 168.585C1129.38 174.557 1128.96 179.844 1127.09 184.445C1125.21 189.046 1122.28 192.746 1118.28 195.546C1114.28 198.347 1109.64 200.208 1104.37 201.131C1099.1 202.054 1094.11 201.877 1089.4 200.602C1084.76 199.315 1080.81 196.82 1077.55 193.117C1074.3 189.414 1072.15 184.577 1071.1 178.604L1062.96 132.124L1074.98 130.021ZM1190.04 170.626L1159.3 175.607L1156.45 191.461L1143.88 193.498L1158.27 115.723L1172.21 113.464L1210.42 182.715L1197.75 184.769L1190.04 170.626ZM1185.07 161.351L1167.6 129.169L1161.09 165.236L1185.07 161.351ZM1245.76 178.158C1240.82 178.895 1236.25 178.712 1232.04 177.608C1227.83 176.434 1224.36 174.427 1221.63 171.589C1218.89 168.751 1217.21 165.216 1216.58 160.983L1229.49 159.056C1230.25 162.189 1231.87 164.615 1234.36 166.335C1236.93 168.044 1240.22 168.599 1244.24 167.999C1248.4 167.378 1251.5 165.906 1253.54 163.583C1255.56 161.189 1256.33 158.405 1255.86 155.23C1255.49 152.761 1254.45 150.861 1252.74 149.53C1251.09 148.188 1249.12 147.257 1246.8 146.737C1244.56 146.206 1241.46 145.731 1237.5 145.312C1232.52 144.758 1228.41 144.072 1225.19 143.255C1222.02 142.356 1219.18 140.689 1216.65 138.253C1214.12 135.818 1212.52 132.307 1211.83 127.721C1211.2 123.488 1211.71 119.626 1213.35 116.135C1214.99 112.645 1217.59 109.768 1221.15 107.507C1224.71 105.245 1228.99 103.74 1234 102.993C1241.13 101.93 1247.22 102.86 1252.27 105.785C1257.38 108.628 1260.65 113.118 1262.07 119.252L1248.73 121.242C1248.12 118.593 1246.51 116.489 1243.9 114.932C1241.28 113.374 1238.07 112.879 1234.26 113.448C1230.81 113.964 1228.12 115.267 1226.19 117.357C1224.27 119.447 1223.55 122.15 1224.05 125.466C1224.38 127.724 1225.33 129.493 1226.9 130.775C1228.52 131.975 1230.45 132.841 1232.69 133.372C1234.93 133.903 1237.96 134.388 1241.78 134.829C1246.85 135.443 1251 136.194 1254.23 137.082C1257.54 137.959 1260.46 139.651 1263 142.157C1265.59 144.582 1267.24 148.123 1267.93 152.78C1268.49 156.519 1268 160.199 1266.44 163.82C1264.96 167.431 1262.44 170.549 1258.86 173.174C1255.35 175.718 1250.98 177.379 1245.76 178.158ZM1356.91 109.245C1357.4 112.993 1356.99 116.646 1355.66 120.204C1354.34 123.762 1351.87 126.859 1348.26 129.497C1344.64 132.063 1339.79 133.75 1333.71 134.557L1320.35 136.329L1324.32 166.241L1312.22 167.845L1302.44 94.1262L1327.9 90.7494C1333.56 89.999 1338.46 90.3558 1342.61 91.8199C1346.83 93.2039 1350.11 95.431 1352.46 98.5013C1354.88 101.562 1356.36 105.143 1356.91 109.245ZM1332.4 124.692C1337 124.082 1340.29 122.602 1342.28 120.251C1344.27 117.83 1345 114.71 1344.5 110.891C1343.43 102.83 1338.33 99.4039 1329.21 100.614L1315.84 102.387L1319.04 126.465L1332.4 124.692ZM1413.23 154.998L1392.67 127.518L1383.43 128.633L1386.99 158.165L1374.88 159.626L1365.97 85.7972L1391.47 82.7203C1397.13 82.0365 1402.03 82.4511 1406.17 83.9639C1410.37 85.4682 1413.63 87.7693 1415.95 90.867C1418.33 93.9562 1419.77 97.5546 1420.27 101.662C1420.85 106.478 1419.96 111.04 1417.61 115.347C1415.31 119.576 1411.35 122.749 1405.71 124.866L1427.68 153.255L1413.23 154.998ZM1382.26 118.966L1395.65 117.351C1400.18 116.804 1403.44 115.261 1405.43 112.721C1407.5 110.173 1408.3 106.986 1407.84 103.162C1407.38 99.3379 1405.88 96.5002 1403.36 94.6491C1400.83 92.7272 1397.26 92.044 1392.66 92.5996L1379.27 94.215L1382.26 118.966ZM1445.54 76.3713L1453.81 150.275L1441.69 151.632L1433.42 77.7285L1445.54 76.3713ZM1530.16 142.386L1518.03 143.628L1475.86 92.12L1481.52 147.364L1469.38 148.606L1461.8 74.5213L1473.94 73.2794L1516.09 124.681L1510.45 69.5426L1522.58 68.3007L1530.16 142.386ZM1594.56 83.4787C1592.32 79.951 1589.42 77.4123 1585.84 75.8626C1582.27 74.2418 1578.24 73.627 1573.76 74.018C1568.86 74.4463 1564.58 75.9295 1560.94 78.4676C1557.29 81.0058 1554.55 84.3963 1552.7 88.6393C1550.92 92.8761 1550.26 97.6594 1550.73 102.989C1551.19 108.319 1552.67 112.951 1555.16 116.887C1557.72 120.745 1561.01 123.608 1565.04 125.476C1569.07 127.343 1573.54 128.063 1578.44 127.635C1585.05 127.058 1590.26 124.741 1594.06 120.686C1597.85 116.631 1599.94 111.401 1600.31 104.995L1572.49 107.425L1571.64 97.7253L1612.47 94.1593L1613.3 103.646C1613.02 109.471 1611.42 114.945 1608.5 120.069C1605.65 125.187 1601.69 129.435 1596.62 132.814C1591.61 136.116 1585.87 138.049 1579.4 138.614C1572.44 139.222 1565.94 138.179 1559.9 135.484C1553.86 132.718 1548.88 128.606 1544.97 123.148C1541.13 117.683 1538.89 111.327 1538.26 104.078C1537.62 96.83 1538.73 90.1819 1541.56 84.1341C1544.47 78.08 1548.66 73.2027 1554.14 69.5021C1559.68 65.7243 1565.9 63.5343 1572.79 62.9322C1580.68 62.2433 1587.85 63.5861 1594.3 66.9607C1600.82 70.2581 1605.78 75.3389 1609.17 82.2031L1594.56 83.4787ZM1638.99 123.125L1664.06 121.238L1664.8 131.054L1627.56 133.857L1621.98 59.7019L1634.14 58.7863L1638.99 123.125ZM1682.57 65.2108L1684 86.9921L1709.62 85.3126L1710.27 95.2423L1684.65 96.9218L1686.14 119.664L1714.97 117.775L1715.62 127.704L1674.62 130.391L1669.75 56.0789L1710.75 53.3917L1711.4 63.3214L1682.57 65.2108ZM1754.69 126.266C1749.71 126.535 1745.17 125.923 1741.09 124.429C1737.01 122.863 1733.74 120.539 1731.29 117.457C1728.83 114.375 1727.49 110.697 1727.26 106.423L1740.3 105.719C1740.76 108.909 1742.14 111.477 1744.46 113.424C1746.85 115.366 1750.08 116.228 1754.14 116.009C1758.34 115.782 1761.57 114.608 1763.81 112.486C1766.05 110.294 1767.08 107.595 1766.91 104.389C1766.77 101.896 1765.92 99.9066 1764.33 98.4203C1762.83 96.9302 1760.94 95.8174 1758.69 95.0819C1756.51 94.3426 1753.46 93.5782 1749.56 92.7887C1744.65 91.7682 1740.63 90.6995 1737.5 89.5828C1734.43 88.391 1731.76 86.4639 1729.47 83.8013C1727.18 81.1388 1725.91 77.4925 1725.66 72.8626C1725.43 68.5889 1726.3 64.7916 1728.26 61.4709C1730.23 58.1501 1733.09 55.5311 1736.84 53.6139C1740.59 51.6966 1745 50.6015 1750.06 50.3283C1757.25 49.9398 1763.23 51.4388 1767.98 54.8253C1772.8 58.1367 1775.63 62.913 1776.47 69.1543L1763.01 69.8814C1762.65 67.1862 1761.24 64.9405 1758.79 63.1442C1756.33 61.348 1753.18 60.5537 1749.33 60.7615C1745.84 60.95 1743.04 61.9942 1740.93 63.8942C1738.82 65.7942 1737.85 68.4181 1738.03 71.7659C1738.16 74.0452 1738.94 75.8963 1740.37 77.319C1741.87 78.6666 1743.71 79.7101 1745.9 80.4495C1748.08 81.1888 1751.05 81.9571 1754.81 82.7543C1759.8 83.8422 1763.86 84.9801 1766.99 86.168C1770.2 87.3521 1772.95 89.3111 1775.24 92.0448C1777.6 94.7035 1778.91 98.3835 1779.16 103.085C1779.36 106.86 1778.52 110.477 1776.64 113.936C1774.82 117.392 1772.01 120.258 1768.21 122.536C1764.47 124.738 1759.97 125.981 1754.69 126.266ZM1831.62 57.3376L1832.42 79.1508L1858.08 78.2045L1858.45 88.1488L1832.79 89.095L1833.63 111.871L1862.5 110.806L1862.86 120.75L1821.8 122.264L1819.06 47.8428L1860.12 46.3288L1860.49 56.2731L1831.62 57.3376ZM1900.22 82.2996C1900.09 75.0248 1901.65 68.4683 1904.9 62.6301C1908.21 56.7906 1912.73 52.2135 1918.45 48.8986C1924.24 45.5112 1930.59 43.7543 1937.51 43.6281C1945.43 43.4837 1952.49 45.3169 1958.69 49.1277C1964.97 52.8659 1969.56 58.2757 1972.47 65.3571L1957.82 65.6245C1955.82 61.7369 1953.09 58.8615 1949.63 56.9983C1946.17 55.1351 1942.2 54.2444 1937.71 54.3264C1932.78 54.4161 1928.42 55.6016 1924.61 57.8828C1920.8 60.1641 1917.82 63.3931 1915.69 67.5701C1913.62 71.7458 1912.64 76.5795 1912.74 82.0713C1912.84 87.563 1914 92.3577 1916.21 96.4553C1918.5 100.552 1921.59 103.706 1925.48 105.918C1929.38 108.059 1933.78 109.084 1938.7 108.994C1943.2 108.912 1947.14 107.877 1950.53 105.889C1953.91 103.901 1956.53 100.928 1958.39 96.9703L1973.05 96.7029C1970.39 103.886 1966 109.46 1959.87 113.424C1953.8 117.387 1946.81 119.441 1938.9 119.586C1931.91 119.713 1925.49 118.225 1919.66 115.121C1913.82 111.945 1909.14 107.5 1905.61 101.786C1902.15 96.0697 1900.36 89.5744 1900.22 82.2996ZM2025.78 118.059L2008.57 88.367L1999.26 88.3962L1999.35 118.142L1987.15 118.18L1986.92 43.8156L2012.6 43.7352C2018.31 43.7173 2023.12 44.7009 2027.05 46.686C2031.05 48.6708 2034.02 51.3365 2035.96 54.6831C2037.97 58.0295 2038.98 61.7714 2038.99 65.9087C2039.01 70.7593 2037.59 75.1864 2034.75 79.19C2031.98 83.122 2027.68 85.8105 2021.83 87.2555L2040.33 118.014L2025.78 118.059ZM1999.23 78.6592L2012.71 78.617C2017.27 78.6027 2020.69 77.4507 2022.97 75.1609C2025.32 72.8709 2026.48 69.7999 2026.47 65.9479C2026.46 62.0959 2025.31 59.1035 2023.02 56.9706C2020.73 54.7665 2017.27 53.6716 2012.63 53.6861L1999.15 53.7283L1999.23 78.6592ZM2067.07 43.7541L2066.61 118.118L2054.41 118.043L2054.87 43.679L2067.07 43.7541ZM2127.31 103.851L2096.18 103.332L2090.58 118.435L2077.84 118.223L2105.72 44.2053L2119.85 44.4406L2145.25 119.346L2132.41 119.132L2127.31 103.851ZM2124.05 93.8446L2112.54 59.0869L2099.77 93.4399L2124.05 93.8446ZM2217.66 122.495C2210.74 122.228 2204.42 120.378 2198.7 116.945C2193.06 113.444 2188.63 108.74 2185.43 102.834C2182.31 96.8603 2180.89 90.2379 2181.17 82.9673C2181.45 75.6967 2183.38 69.2392 2186.95 63.5947C2190.59 57.9529 2195.36 53.6396 2201.26 50.6547C2207.23 47.6013 2213.67 46.2079 2220.59 46.4746C2227.57 46.7441 2233.89 48.6296 2239.54 52.1312C2245.26 55.5643 2249.68 60.2323 2252.81 66.1352C2255.94 72.0381 2257.36 78.6249 2257.08 85.8955C2256.8 93.1661 2254.87 99.6593 2251.3 105.375C2247.72 111.019 2242.95 115.368 2236.98 118.422C2231.08 121.407 2224.64 122.765 2217.66 122.495ZM2218.07 111.91C2222.98 112.1 2227.41 111.164 2231.34 109.103C2235.28 106.97 2238.4 103.878 2240.7 99.8263C2243.07 95.706 2244.36 90.9015 2244.57 85.413C2244.78 79.9244 2243.86 75.0703 2241.81 70.8508C2239.84 66.6341 2236.96 63.3466 2233.2 60.9885C2229.44 58.6303 2225.09 57.3564 2220.18 57.1667C2215.26 56.9769 2210.83 57.9127 2206.9 59.9739C2202.96 62.0351 2199.81 65.0903 2197.44 69.1393C2195.14 73.1911 2193.89 77.9612 2193.68 83.4498C2193.47 88.9384 2194.35 93.8267 2196.32 98.1147C2198.37 102.334 2201.28 105.659 2205.04 108.088C2208.81 110.446 2213.15 111.72 2218.07 111.91ZM2346.98 53.8059L2346.39 63.7394L2326.63 62.567L2322.81 126.868L2310.64 126.145L2314.45 61.8446L2294.59 60.6658L2295.18 50.7323L2346.98 53.8059ZM2371.22 65.3529L2369.66 87.1253L2395.28 88.9569L2394.57 98.8826L2368.95 97.051L2367.33 119.784L2396.14 121.844L2395.43 131.77L2354.45 128.84L2359.76 54.5572L2400.74 57.4878L2400.03 67.4135L2371.22 65.3529ZM2428.28 59.8494L2424.23 107.078C2423.75 112.693 2424.85 117.046 2427.52 120.139C2430.26 123.237 2434.26 125.011 2439.52 125.461C2444.85 125.917 2449.1 124.849 2452.25 122.255C2455.48 119.668 2457.34 115.567 2457.82 109.952L2461.86 62.7233L2474.01 63.7634L2469.99 110.779C2469.47 116.82 2467.72 121.825 2464.73 125.793C2461.74 129.761 2457.96 132.587 2453.37 134.271C2448.79 135.955 2443.83 136.569 2438.5 136.113C2433.17 135.657 2428.39 134.21 2424.16 131.772C2420 129.339 2416.82 125.917 2414.62 121.505C2412.42 117.093 2411.58 111.866 2412.1 105.825L2416.12 58.8094L2428.28 59.8494ZM2534.66 145.31C2529.7 144.782 2525.32 143.455 2521.53 141.329C2517.74 139.133 2514.89 136.318 2512.96 132.884C2511.03 129.45 2510.29 125.606 2510.74 121.35L2523.72 122.732C2523.67 125.954 2524.63 128.711 2526.61 131.002C2528.66 133.301 2531.71 134.666 2535.75 135.096C2539.93 135.542 2543.3 134.896 2545.86 133.159C2548.42 131.352 2549.87 128.852 2550.21 125.66C2550.47 123.177 2549.94 121.076 2548.62 119.357C2547.36 117.646 2545.68 116.247 2543.58 115.162C2541.54 114.084 2538.66 112.845 2534.93 111.444C2530.25 109.653 2526.44 107.957 2523.53 106.356C2520.69 104.691 2518.36 102.362 2516.53 99.3686C2514.69 96.3756 2514.02 92.5739 2514.51 87.9633C2514.97 83.7073 2516.43 80.0967 2518.9 77.1314C2521.36 74.166 2524.6 72.0361 2528.61 70.7417C2532.63 69.4472 2537.15 69.0682 2542.19 69.6045C2549.35 70.3675 2555.01 72.7994 2559.16 76.9004C2563.4 80.9381 2565.43 86.1043 2565.26 92.3993L2551.85 90.9715C2551.93 88.2535 2550.9 85.8122 2548.76 83.6477C2546.62 81.4833 2543.64 80.1971 2539.81 79.7892C2536.33 79.419 2533.4 80.0035 2531.02 81.5427C2528.63 83.0818 2527.26 85.5183 2526.9 88.8521C2526.66 91.1219 2527.13 93.0734 2528.32 94.7065C2529.59 96.2762 2531.24 97.6 2533.28 98.6778C2535.32 99.7556 2538.13 100.987 2541.71 102.373C2546.46 104.242 2550.29 106.013 2553.2 107.685C2556.17 109.366 2558.57 111.738 2560.4 114.801C2562.3 117.802 2563.01 121.643 2562.51 126.325C2562.11 130.084 2560.7 133.521 2558.29 136.636C2555.95 139.758 2552.72 142.14 2548.6 143.782C2544.56 145.36 2539.91 145.869 2534.66 145.31ZM2620.36 139.202L2589.45 135.438L2582.3 149.874L2569.66 148.335L2605.11 77.6296L2619.13 79.3367L2636.58 156.483L2623.83 154.931L2620.36 139.202ZM2618.16 128.91L2610.34 93.1409L2594.05 125.974L2618.16 128.91ZM2692.12 125.539C2695.98 126.792 2699.05 129.34 2701.33 133.183C2703.6 137.026 2704.44 141.138 2703.84 145.519C2703.32 149.264 2701.86 152.519 2699.46 155.285C2697.15 157.989 2694.03 159.971 2690.11 161.23C2686.2 162.418 2681.81 162.676 2676.93 162.003L2647.47 157.934L2657.64 84.2677L2685.73 88.1465C2690.74 88.8393 2694.94 90.2825 2698.31 92.476C2701.68 94.6696 2704.08 97.3418 2705.52 100.493C2706.96 103.573 2707.44 106.88 2706.96 110.413C2706.37 114.652 2704.75 118.029 2702.1 120.544C2699.45 123.058 2696.12 124.723 2692.12 125.539ZM2665.45 116.887L2680.39 118.95C2684.35 119.497 2687.55 119.038 2689.98 117.574C2692.5 116.049 2693.99 113.591 2694.46 110.199C2694.91 106.878 2694.14 104.142 2692.13 101.993C2690.2 99.7824 2687.26 98.404 2683.31 97.8575L2668.36 95.7938L2665.45 116.887ZM2677.23 151.999C2681.33 152.565 2684.68 152.02 2687.29 150.363C2689.89 148.706 2691.44 146.112 2691.93 142.578C2692.43 138.975 2691.58 135.942 2689.4 133.481C2687.22 131.019 2684.08 129.506 2679.99 128.94L2664.09 126.744L2660.91 149.745L2677.23 151.999ZM2747 173.13C2740.17 172.07 2734.1 169.506 2728.81 165.438C2723.61 161.311 2719.75 156.13 2717.26 149.896C2714.84 143.602 2714.19 136.86 2715.3 129.67C2716.42 122.48 2719.07 116.286 2723.27 111.09C2727.54 105.904 2732.77 102.168 2738.97 99.8808C2745.26 97.5339 2751.82 96.8904 2758.65 97.95C2765.56 99.0206 2771.62 101.62 2776.83 105.747C2782.12 109.815 2785.98 114.961 2788.4 121.184C2790.83 127.407 2791.49 134.114 2790.37 141.304C2789.26 148.494 2786.6 154.723 2782.39 159.99C2778.19 165.186 2772.95 168.958 2766.67 171.305C2760.47 173.592 2753.91 174.2 2747 173.13ZM2748.63 162.662C2753.49 163.415 2758 162.995 2762.14 161.399C2766.3 159.733 2769.75 157.02 2772.5 153.259C2775.33 149.439 2777.16 144.815 2778 139.387C2778.84 133.959 2778.49 129.031 2776.94 124.604C2775.46 120.188 2772.98 116.592 2769.51 113.817C2766.05 111.042 2761.88 109.278 2757.02 108.524C2752.15 107.77 2747.65 108.191 2743.5 109.786C2739.36 111.381 2735.88 114.054 2733.06 117.804C2730.31 121.565 2728.51 126.159 2727.67 131.587C2726.83 137.015 2727.15 141.972 2728.62 146.459C2730.17 150.886 2732.67 154.523 2736.13 157.368C2739.6 160.143 2743.76 161.908 2748.63 162.662ZM2833.94 186.636L2822.12 154.415L2812.94 152.834L2807.89 182.148L2795.87 180.077L2808.5 106.792L2833.81 111.152C2839.43 112.121 2844.01 113.923 2847.53 116.558C2851.13 119.204 2853.59 122.343 2854.92 125.974C2856.32 129.617 2856.67 133.478 2855.97 137.555C2855.14 142.335 2852.99 146.451 2849.5 149.903C2846.09 153.297 2841.38 155.201 2835.38 155.613L2848.28 189.107L2833.94 186.636ZM2814.6 143.238L2827.88 145.528C2832.38 146.303 2835.95 145.76 2838.59 143.898C2841.3 142.048 2842.98 139.225 2843.63 135.429C2844.29 131.633 2843.67 128.487 2841.78 125.99C2839.91 123.423 2836.69 121.746 2832.12 120.959L2818.83 118.669L2814.6 143.238Z" fill="black" fill-opacity="0.5"/>
</svg>
