<svg width="114" height="115" viewBox="0 0 114 115" fill="none" xmlns="http://www.w3.org/2000/svg">
<path d="M1.99047 55.8557C2.9774 25.4961 28.3888 1.68483 58.7484 2.67176C89.1081 3.65869 112.919 29.0701 111.932 59.4297C110.945 89.7893 85.5341 113.601 55.1744 112.614C24.8148 111.627 1.00354 86.2154 1.99047 55.8557Z" fill="white"/>
<path d="M91.2577 25.5062C82.7345 16.4103 70.9471 11.0727 58.4885 10.6677C46.0299 10.2627 33.9207 14.8234 24.8248 23.3466C15.7288 31.8698 10.3912 43.6572 9.98624 56.1158C9.58123 68.5744 14.142 80.6836 22.6652 89.7796C31.1883 98.8755 42.9758 104.213 55.4344 104.618C67.893 105.023 80.0022 100.462 89.0981 91.9392C98.194 83.416 103.532 71.6285 103.937 59.17C104.342 46.7114 99.7809 34.6021 91.2577 25.5062ZM72.9592 74.1921C72.886 74.184 72.8115 74.1759 72.7363 74.1735L60.6255 73.7798C59.8469 73.7545 59.0901 74.0395 58.5216 74.5722C57.9531 75.1049 57.6195 75.8416 57.5942 76.6203L57.4973 79.6012C57.0812 79.606 56.6645 79.6029 56.2485 79.5894C50.6354 79.4069 45.4437 77.6527 41.6292 74.6505C38.4617 72.1572 36.6156 69.0716 36.338 65.8574L77.007 67.1794C76.6139 69.7278 75.2115 72.1571 72.9587 74.1921L72.9592 74.1921ZM63.1722 85.8505L63.3706 79.7471L69.6095 79.9499L69.0568 96.9501C67.7267 97.3609 66.3765 97.7032 65.0113 97.9758L65.3104 88.7742C65.3317 88.1181 65.1327 87.4737 64.745 86.9438C64.3574 86.414 63.8034 86.0292 63.1716 85.8509L63.1722 85.8505ZM75.0118 94.5852L75.4953 79.712C75.5267 79.6897 75.5593 79.67 75.5893 79.6459C80.194 76.0796 82.8222 71.3059 82.9881 66.2043C83.0116 65.4776 82.9849 64.7502 82.9084 64.0272C82.8338 63.322 82.5066 62.6677 81.9872 62.1849C81.4679 61.7021 80.7914 61.4235 80.0827 61.4004L33.6455 59.8908C32.9368 59.8678 32.2436 60.1019 31.694 60.5499C31.1444 60.998 30.7754 61.6297 30.6551 62.3286C30.5318 63.0449 30.458 63.769 30.4342 64.4955C30.254 70.0406 32.9391 75.2861 37.9948 79.2659C42.7864 83.0383 49.2012 85.238 56.0571 85.4609C56.4727 85.4744 56.8892 85.4777 57.3057 85.4763L57.2071 88.5108C57.1858 89.1669 57.3848 89.8112 57.7723 90.3411C58.1598 90.8709 58.7136 91.2557 59.3453 91.4341L59.1088 98.7105C57.9486 98.7711 56.7864 98.7829 55.6253 98.746C32.9609 98.0093 15.1215 78.9711 15.8583 56.3067C16.5951 33.6424 35.6333 15.803 58.2976 16.5397C80.962 17.2765 98.8013 36.3147 98.0646 58.9791C97.5535 74.6999 88.2355 88.0968 75.0112 94.5856L75.0118 94.5852ZM84.7757 46.8137C84.7504 47.5923 84.4168 48.3291 83.8483 48.8618C83.2798 49.3944 82.523 49.6795 81.7443 49.6542L65.5777 49.1286C64.7991 49.1033 64.0624 48.7697 63.5297 48.2012C62.997 47.6327 62.7119 46.8759 62.7372 46.0973C62.7626 45.3186 63.0962 44.5819 63.6647 44.0492C64.2331 43.5165 64.99 43.2314 65.7686 43.2568L81.9346 43.7823C82.3202 43.7948 82.6996 43.8832 83.051 44.0423C83.4024 44.2015 83.7191 44.4283 83.9828 44.7098C84.2466 44.9914 84.4523 45.3221 84.5883 45.6831C84.7242 46.0442 84.7877 46.4285 84.7751 46.814L84.7757 46.8137ZM51.9482 45.7465C51.9229 46.5252 51.5893 47.2619 51.0208 47.7946C50.4523 48.3273 49.6955 48.6123 48.9168 48.587L32.7503 48.0615C31.9716 48.0362 31.2349 47.7026 30.7022 47.1341C30.1695 46.5656 29.8845 45.8088 29.9098 45.0301C29.9351 44.2514 30.2687 43.5147 30.8372 42.982C31.4057 42.4493 32.1625 42.1643 32.9412 42.1896L49.1072 42.7151C49.4928 42.7277 49.8721 42.816 50.2235 42.9752C50.575 43.1343 50.8916 43.3611 51.1554 43.6427C51.4191 43.9242 51.6249 44.2549 51.7608 44.616C51.8967 44.977 51.9602 45.3613 51.9477 45.7469L51.9482 45.7465Z" fill="#57C3EE"/>
</svg>
