<svg width="117" height="116" viewBox="0 0 117 116" fill="none" xmlns="http://www.w3.org/2000/svg">
<rect x="0.703125" y="6.18213" width="110" height="110" rx="55" transform="rotate(-3.22214 0.703125 6.18213)" fill="white"/>
<path d="M90.0208 22.9541C80.7251 14.6493 68.5111 10.3773 56.0656 11.078C43.6202 11.7787 31.9628 17.3946 23.658 26.6903C15.3532 35.986 11.0812 48.2 11.7819 60.6455C12.4825 73.0909 18.0985 84.7483 27.3942 93.0531C36.6899 101.358 48.9039 105.63 61.3494 104.929C73.7948 104.229 85.4522 98.6127 93.757 89.317C102.062 80.0213 106.334 67.8072 105.633 55.3617C104.932 42.9163 99.3165 31.2589 90.0208 22.9541ZM61.019 99.0635C38.3785 100.338 18.9222 82.9556 17.6476 60.3151C16.373 37.6746 33.7555 18.2183 56.396 16.9437C79.0365 15.6692 98.4928 33.0516 99.7674 55.6921C101.042 78.3326 83.6595 97.7889 61.019 99.0635ZM66.7881 47.5741L66.6719 45.5108C66.4288 41.1913 70.2603 37.4502 75.2128 37.1714C80.1653 36.8926 84.3925 40.18 84.6356 44.4996L84.7518 46.5637C84.7956 47.3416 84.5286 48.1049 84.0096 48.6859C83.4905 49.2669 82.7619 49.6179 81.9841 49.6617C81.2063 49.7055 80.4429 49.4385 79.8619 48.9194C79.2809 48.4004 78.9299 47.6718 78.8861 46.8939L78.7699 44.8298C78.7176 43.9008 77.3263 42.9367 75.543 43.0371C73.7596 43.1375 72.4853 44.2516 72.5376 45.1806L72.6538 47.2448C72.6976 48.0226 72.4306 48.786 71.9116 49.367C71.3925 49.948 70.6639 50.299 69.8861 50.3428C69.1083 50.3865 68.3449 50.1195 67.7639 49.6005C67.1829 49.0814 66.8319 48.3529 66.7881 47.575L66.7881 47.5741ZM31.5431 49.5583L31.427 47.495C31.1838 43.1755 35.0153 39.4343 39.9678 39.1555C44.9203 38.8767 49.1475 42.1642 49.3907 46.4837L49.5069 48.5479C49.5507 49.3257 49.2837 50.0891 48.7646 50.6701C48.2456 51.2511 47.517 51.6021 46.7391 51.6458C45.9613 51.6896 45.1979 51.4226 44.6169 50.9036C44.036 50.3845 43.685 49.6559 43.6412 48.8781L43.525 46.8139C43.4727 45.8849 42.0816 44.9208 40.298 45.0212C38.5145 45.1216 37.2404 46.2358 37.2927 47.1648L37.4089 49.229C37.4527 50.0068 37.1857 50.7702 36.6666 51.3512C36.1476 51.9321 35.419 52.2831 34.6411 52.3269C33.8633 52.3707 33.0999 52.1037 32.5189 51.5847C31.938 51.0656 31.587 50.337 31.5432 49.5592L31.5431 49.5583ZM85.5205 64.9434C84.8875 64.5706 84.1378 64.4485 83.4193 64.6013C82.7008 64.7541 82.0656 65.1706 81.6392 65.7687L80.206 63.5805C79.2547 62.1281 78.0267 60.8772 76.5921 59.8994C75.1574 58.9215 73.5442 58.2359 71.8445 57.8815C70.1449 57.5271 68.3921 57.5109 66.6862 57.834C64.9803 58.157 63.3547 58.8129 61.9023 59.7641C60.4499 60.7154 59.199 61.9434 58.2212 63.378C57.2433 64.8127 56.5577 66.4259 56.2033 68.1256C55.8489 69.8252 55.8328 71.578 56.1558 73.2839C56.4788 74.9898 57.1347 76.6154 58.0859 78.0678L58.8236 79.1943C54.5921 79.2653 50.404 78.3322 46.6028 76.4716C42.8016 74.611 39.4956 71.8758 36.956 68.4904C36.7249 68.1799 36.4347 67.918 36.1022 67.72C35.7696 67.522 35.4012 67.3916 35.0181 67.3365C34.635 67.2813 34.2447 67.3023 33.8698 67.3985C33.4949 67.4946 33.1426 67.6639 32.8333 67.8966C32.524 68.1293 32.2637 68.4208 32.0675 68.7544C31.8712 69.088 31.7428 69.4571 31.6896 69.8405C31.6365 70.2239 31.6596 70.614 31.7577 70.9885C31.8558 71.3629 32.0269 71.7142 32.2613 72.0223C35.4924 76.3244 39.7357 79.7621 44.6145 82.0304C49.4933 84.2986 54.8567 85.3272 60.2285 85.0248C65.6003 84.7224 70.8144 83.0983 75.4078 80.2968C80.0012 77.4953 83.8318 73.603 86.5597 68.9655C86.9552 68.2943 87.0679 67.4935 86.873 66.7392C86.6782 65.985 86.1916 65.339 85.5205 64.9434ZM65.1212 64.6796C66.7516 63.6144 68.7381 63.2394 70.6447 63.6369C72.5513 64.0344 74.2223 65.172 75.2913 66.8L77.8973 70.7793C74.4719 74.419 70.0951 77.026 65.2634 78.3046L63.0005 74.8497C61.9353 73.2192 61.5603 71.2328 61.9579 69.3262C62.3554 67.4195 63.493 65.7485 65.1212 64.6796Z" fill="#FEB859"/>
</svg>
