<svg width="110" height="111" viewBox="0 0 110 111" fill="none" xmlns="http://www.w3.org/2000/svg">
<path d="M1.06391e-07 55.1372C4.76328e-08 24.7615 24.6243 0.137207 55 0.137207C85.3757 0.137207 110 24.7615 110 55.1372C110 85.5129 85.3757 110.137 55 110.137C24.6243 110.137 1.65149e-07 85.5129 1.06391e-07 55.1372Z" fill="white"/>
<path d="M55 8.13721C29.0841 8.13721 8 29.2213 8 55.1372C8 81.0531 29.0841 102.137 55 102.137C80.9159 102.137 102 81.0531 102 55.1372C102 29.2213 80.9159 8.13721 55 8.13721ZM55 96.2622C32.3236 96.2622 13.875 77.8136 13.875 55.1372C13.875 32.4608 32.3236 14.0122 55 14.0122C77.6764 14.0122 96.125 32.4608 96.125 55.1372C96.125 77.8136 77.6764 96.2622 55 96.2622ZM37.6517 55.3652C38.4307 55.3652 39.1778 55.0557 39.7287 54.5049L47.776 46.4578C49.152 45.0875 49.9483 43.2405 50 41.2993C50.0517 39.3581 49.3548 37.4713 48.0536 36.0298C46.7524 34.5882 44.9467 33.7023 43.0103 33.5556C41.0739 33.4088 39.1553 34.0124 37.6517 35.2413C36.1983 34.0616 34.3596 33.4618 32.4901 33.5575C30.6207 33.6533 28.8528 34.4378 27.5276 35.7598C26.1122 37.1802 25.3175 39.1037 25.3175 41.1089C25.3175 43.1141 26.1122 45.0376 27.5276 46.458L35.5745 54.5051C36.1254 55.0559 36.8726 55.3653 37.6517 55.3652ZM31.1923 41.1088C31.1908 40.8872 31.2333 40.6675 31.3173 40.4624C31.4013 40.2574 31.5252 40.071 31.6818 39.9142C32.0015 39.6028 32.4302 39.4286 32.8765 39.4286C33.3228 39.4286 33.7515 39.6028 34.0712 39.9142L35.5745 41.4176C36.1254 41.9685 36.8725 42.2779 37.6516 42.2779C38.4306 42.2779 39.1778 41.9685 39.7287 41.4176L41.2321 39.9142C41.389 39.7573 41.5753 39.6328 41.7803 39.5479C41.9854 39.463 42.2051 39.4193 42.427 39.4193C42.6489 39.4194 42.8686 39.4631 43.0736 39.548C43.2786 39.6329 43.4649 39.7574 43.6218 39.9143C43.7787 40.0713 43.9031 40.2576 43.988 40.4626C44.0729 40.6676 44.1166 40.8873 44.1166 41.1092C44.1166 41.3311 44.0729 41.5508 43.9879 41.7558C43.903 41.9608 43.7785 42.1471 43.6216 42.304L37.6517 48.2739L31.6818 42.304C31.5252 42.1471 31.4013 41.9606 31.3172 41.7555C31.2332 41.5503 31.1908 41.3305 31.1923 41.1088ZM82.4724 35.7598C81.1471 34.4378 79.3793 33.6533 77.5098 33.5576C75.6403 33.4618 73.8016 34.0616 72.3481 35.2413C70.8445 34.0132 68.9261 33.4102 66.9902 33.5573C65.0543 33.7044 63.249 34.5903 61.9482 36.0315C60.6473 37.4728 59.9505 39.359 60.0018 41.2999C60.0532 43.2407 60.8489 45.0874 62.2242 46.4578L70.2711 54.5049C70.822 55.0558 71.5692 55.3652 72.3482 55.3652C73.1273 55.3652 73.8744 55.0558 74.4253 54.5049L82.4724 46.4578C83.889 45.0381 84.6845 43.1144 84.6845 41.1088C84.6845 39.1032 83.889 37.1796 82.4724 35.7598ZM78.3182 42.304L72.3481 48.2739L66.3784 42.304C66.0669 41.9843 65.8926 41.5556 65.8926 41.1092C65.8926 40.6628 66.0669 40.2341 66.3784 39.9143C66.6982 39.603 67.1268 39.4289 67.5731 39.4289C68.0193 39.4289 68.4479 39.603 68.7677 39.9143L70.271 41.4178C70.5437 41.6906 70.8676 41.907 71.224 42.0546C71.5804 42.2022 71.9624 42.2782 72.3481 42.2782C72.7339 42.2782 73.1159 42.2022 73.4723 42.0546C73.8287 41.907 74.1525 41.6906 74.4253 41.4178L75.9286 39.9143C76.2455 39.5975 76.6753 39.4194 77.1234 39.4194C77.5716 39.4194 78.0014 39.5975 78.3182 39.9143C78.6351 40.2312 78.8132 40.661 78.8132 41.1092C78.8132 41.5573 78.6351 41.9871 78.3182 42.304ZM78.2307 63.3589L31.7693 63.3589C31.0602 63.3589 30.3751 63.6154 29.8403 64.0811C29.3055 64.5467 28.9572 65.1901 28.8597 65.8925C28.7598 66.6126 28.7095 67.3388 28.7094 68.0659C28.7094 73.6139 31.5635 78.7694 36.7458 82.5828C41.6575 86.1972 48.1404 88.1878 55 88.1878C61.8596 88.1878 68.3423 86.1972 73.254 82.5828C78.4363 78.7696 81.2904 73.6139 81.2904 68.0659C81.2903 67.3388 81.2401 66.6127 81.1403 65.8925C81.0428 65.1901 80.6946 64.5466 80.1598 64.0808C79.625 63.6151 78.9398 63.3585 78.2307 63.3585L78.2307 63.3589ZM69.7721 77.8505C65.8616 80.7276 60.6159 82.3118 55 82.3118C49.3841 82.3118 44.1379 80.7272 40.2279 77.8505C36.981 75.4614 35.0356 72.4374 34.6538 69.2339L75.346 69.2339C74.9642 72.4371 73.0188 75.461 69.7721 77.8501L69.7721 77.8505Z" fill="#39B88D"/>
</svg>
